<?xml version="1.0" encoding="UTF-8" standalone="no"?>
<!-- Created with Inkscape (http://www.inkscape.org/) -->

<svg
   version="1.1"
   id="svg2"
   width="49.439999"
   height="52.186668"
   viewBox="0 0 49.439999 52.186668"
   sodipodi:docname="playlist icon.eps"
   xmlns:inkscape="http://www.inkscape.org/namespaces/inkscape"
   xmlns:sodipodi="http://sodipodi.sourceforge.net/DTD/sodipodi-0.dtd"
   xmlns="http://www.w3.org/2000/svg"
   xmlns:svg="http://www.w3.org/2000/svg">
  <defs
     id="defs6" />
  <sodipodi:namedview
     id="namedview4"
     pagecolor="#ffffff"
     bordercolor="#000000"
     borderopacity="0.25"
     inkscape:showpageshadow="2"
     inkscape:pageopacity="0.0"
     inkscape:pagecheckerboard="0"
     inkscape:deskcolor="#d1d1d1" />
  <g
     id="g8"
     inkscape:groupmode="layer"
     inkscape:label="ink_ext_XXXXXX"
     transform="matrix(1.3333333,0,0,-1.3333333,0,52.186667)">
    <g
       id="g10"
       transform="scale(0.1)">
      <path
         d="M 350.762,309.406 V 371.43 L 123.363,309.406 V 71.6836 c 0,-28.5469 -23.14,-51.6797 -51.6794,-51.6797 -28.5469,0 -51.6875,23.1328 -51.6875,51.6797 0,28.5434 23.1406,51.6794 51.6875,51.6794 M 350.762,92.3555 c 0,-28.543 -23.149,-51.6797 -51.684,-51.6797 -28.543,0 -51.687,23.1367 -51.687,51.6797 0,28.5355 23.144,51.6795 51.687,51.6795 28.535,0 51.684,-23.144 51.684,-51.6795 z m 0,134.3675 V 92.3555"
         style="fill:none;stroke:#ffffff;stroke-width:40;stroke-linecap:round;stroke-linejoin:round;stroke-miterlimit:133.333;stroke-dasharray:none;stroke-opacity:1"
         id="path12" />
    </g>
  </g>
</svg>
